<?xml version="1.0" encoding="UTF-8"?>
<svg xmlns="http://www.w3.org/2000/svg" version="1.1" viewBox="0 0 544.9 306.4">
  <defs>
    <style>
      .cls-1 {
        fill: #000;
      }
    </style>
  </defs>
  <!-- Generator: Adobe Illustrator 28.7.0, SVG Export Plug-In . SVG Version: 1.2.0 Build 136)  -->
  <g>
    <g id="Layer_1">
      <path class="cls-1" d="M452.4,227.2v-91.6c-1.4-32.4-28.8-57.7-61.2-56.4-22.6.9-42.7,14.7-51.7,35.5-2.9-28.6-27.7-34.2-42-34.2-21.8,0-40.9,13.3-42.4,33.6-1.4-8.7-4.3-14-10.6-20.6-8.7-9.1-25.1-13.3-37.4-13.3s-23.8,3.1-32.9,9.6c-9.1-6.5-22.5-9.6-32.9-9.6s-28.6,4.2-37.4,13.3c-10.1,10.7-11.7,17.9-11.7,41.8v59.5h32.3v-58c0-8.7.2-23.9,16.7-23.9s16.7,15.1,16.7,23.9v58h32.4v-58c0-8.7.2-23.9,16.7-23.9s16.7,15.1,16.7,23.9v58h32.3v-22.5c7.4,19.7,27.9,25.3,42.1,25.3,21.9,0,40.6-11.6,44-30.7,15.5,27.6,50.2,37.9,78.3,23.3v37h31.7ZM298.7,171.4c-1.4,0-11.1,0-12.5-10.1h-30v-25.9c0-4.4,0-8.3-.2-11.7,3.1,10.8,13.3,17.8,25.1,21.6,20.9,8.1,29,9.1,29,17.6s-5.9,8.5-11.4,8.5ZM304.6,125.9c-8.7-2.6-16.8-5.9-16.8-11.8s2.4-7.3,9.3-7.3,10.1,5.9,10.3,8.3h32c-3.1,7.3-4.6,15-4.6,22.9v1.4c-7.4-7.2-19-10.5-30.1-13.5h0ZM393.6,165.5c-15.4,0-27.8-12.5-27.8-27.9,0-15.4,12.5-27.8,27.9-27.8,15.4,0,27.8,12.5,27.8,27.9,0,15.4-12.5,27.8-27.9,27.8h0Z"/>
    </g>
  </g>
</svg>